<?xml version="1.0" encoding="utf-8"?><svg version="1.1" xmlns="http://www.w3.org/2000/svg" xmlns:xlink="http://www.w3.org/1999/xlink" viewBox="0 0 143 48" xml:space="preserve"><style>.st0{fill:#008EC6;}.st1{fill:none;stroke:#FFFFFF;stroke-width:1.1962;stroke-linecap:round;stroke-linejoin:round;stroke-miterlimit:10;}.st2{fill:none;stroke:#FFFFFF;stroke-width:1.1962;stroke-miterlimit:10;}.st3{fill:#9D9995;}</style><g><path class="st0" d="M28.435,45.091c11.215-1.045,19.943-10.225,19.943-21.144c0-11.747-10.193-21.347-22.668-21.347c-12.536,0-22.639,9.6-22.639,21.347c0,10.919,8.67,19.823,19.914,21.144c0.529,0.059,0.998-0.191,0.998-0.877c0-0.609,0.352-15.859,0.352-15.883c0-0.523-0.266-0.748-0.82-0.693c-0.293,0.029-0.705,0.111-1.027,0.138c-0.904,0.856-2.695,1.356-4.07,1.356c-0.441,0-1.873-0.14-1.902-0.719c0-0.193,0.145-0.227,0.291-0.227c0.678,0,1.086,0.061,2.023-0.049c0.233-0.027,0.44-0.113,0.44-0.305c0-0.135-0.119-0.195-0.383-0.221c-0.613-0.059-2.839-0.386-2.839-1.267c0-0.36,0.498-0.36,0.994-0.251c0.762,0.195,2.288,0.471,3.487,0.663c0.146,0.026,0.263-0.028,0.263-0.14c0-0.137-0.117-0.272-0.263-0.357c-0.35-0.191-1.025-0.305-1.641-0.389c-0.322-0.051-0.555-0.108-0.555-0.356c0-0.334,0.85-0.58,1.348-0.58c1.289,0,2.252,0.58,2.838,1.514c0.117,0.197,0.352,0.197,0.705,0.197c0.35,0,1.113-0.054,1.113-0.054v-1.493c0-0.299-0.232-0.576-0.705-0.603c-1.492-0.057-4.275-0.166-7.203-0.963c-0.762,1.267-2.547,2.287-3.572,2.287c-0.351,0-0.678-0.193-0.678-0.497c0-0.247,0.094-0.416,0.498-0.636c0.942-0.521,1.67-0.797,2.051-1.104c0.295-0.248-0.205-0.572-0.582-0.572c-0.147,0-0.293,0.081-0.354,0.16c-0.351,0.412-1.375,1.379-3.662,1.379c-0.409,0-0.848-0.137-0.848-0.521c0-0.307,0.353-0.445,0.468-0.472c0.762-0.138,1.758-0.409,2.315-0.661c0.147-0.053,0.207-0.164,0.207-0.219c0-0.165-0.178-0.195-0.356-0.165c-0.408,0.083-1.05,0.165-1.523,0.165c-0.818,0-3.336-0.332-3.453-1.438c0-0.496,0.555-0.55,0.965-0.328c0.82,0.441,1.816,0.772,2.345,0.772c0.233,0,0.409-0.082,0.409-0.221c0-0.168-0.118-0.223-0.266-0.301c-0.672-0.388-2.107-1.188-2.928-2.152c-0.291-0.359-0.117-0.746,0.322-0.746c0.178,0,0.322,0.057,0.529,0.168c0.347,0.19,0.789,0.633,1.053,0.742c0.176,0.086,0.408,0,0.294-0.359c-0.177-0.494-0.646-1.764-0.851-2.4c-0.088-0.301,0.061-0.738,0.529-0.738c0.232,0,0.378,0.162,0.471,0.41c0.082,0.191,0.934,2.234,1.312,2.949c0.061,0.109,0.147,0.197,0.264,0.197c0.205,0,0.266-0.168,0.236-0.304c-0.087-0.556-0.378-0.995-0.378-1.682c0-0.388,0.262-0.694,0.701-0.694c0.379,0,0.557,0.275,0.557,0.638c0,1.573,0.671,4.104,1.611,4.104c0.144,0,0.293-0.08,0.293-0.274c0-0.331-0.264-1.101-0.264-1.27c0-0.332,0.176-0.467,0.408-0.467c0.352,0,0.676,0.412,0.791,0.742c0.207,0.496,0.12,1.936,0.997,1.936c0.232,0,0.408-0.145,0.408-0.468c0-0.085-0.025-0.474-0.025-0.56c0-0.191,0.084-0.604,0.555-0.604c0.291,0,0.469,0.246,0.554,0.551c0.237,0.744,0.411,1.16,0.704,1.545c0.207,0.25,0.469,0.356,0.705,0.356c0.293,0,0.523-0.219,0.469-0.494c-0.207-0.773-1.025-1.268-1.025-2.095c0-0.274,0.203-0.606,0.645-0.606c0.322,0,0.494,0.246,0.584,0.606c0.176,0.856,0.822,2.538,2.08,2.538c0.176,0,0.379-0.084,0.379-0.305c0-0.33-0.379-0.855-0.379-1.242c0-0.135,0.146-0.411,0.615-0.411c0.351,0,0.615,0.247,0.644,0.521c0.059,0.332,0.059,0.969,0.703,0.969c0.381,0,0.611-0.221,0.611-0.662l0.06-2.369c-0.816,0.549-1.784,0.909-2.928,0.909c-0.527,0-1.172-0.194-1.172-0.581c0-0.275,0.263-0.275,0.498-0.275c0.174,0,0.291-0.025,0.674-0.084c0.266-0.057,0.351-0.166,0.351-0.272c0-0.114-0.086-0.196-0.351-0.224c-0.354-0.029-1.346-0.139-2.049-0.332c-0.149-0.025-0.266,0-0.352,0.059c-0.822,0.383-2.021,0.521-2.93,0.497c-0.647-0.032-2.288-0.333-2.288-1.106c0-0.222,0.12-0.386,0.385-0.386c0.381,0,0.762,0.33,1.58,0.441c0.207,0.025,0.41-0.027,0.41-0.191c0-0.086-0.087-0.168-0.324-0.25c-1.141-0.387-4.42-1.792-6.295-3.697c-0.352-0.357-0.118-0.854,0.266-0.854c0.23,0,0.351,0.082,0.437,0.141c0.352,0.244,1.172,0.855,1.524,1.045c0.088,0.055,0.174,0.082,0.262,0.082c0.06,0,0.234-0.082,0.205-0.272c-0.116-0.416-0.32-0.775-0.438-1.27c-0.089-0.445,0.233-0.688,0.616-0.688c0.381,0,0.674,0.242,0.73,0.824c0.119,1.211,0.498,1.9,0.94,2.15c0.289,0.224,0.642,0.055,0.525-0.25c-0.178-0.551-0.383-1.072-0.408-1.623c0-0.33,0.056-0.994,0.525-0.994c0.352,0,0.41,0.221,0.529,0.605c0.204,0.717,0.555,1.85,0.76,2.458c0.146,0.491,0.381,0.741,0.701,0.741c0.235,0,0.413-0.219,0.354-0.605c-0.031-0.168-0.088-0.582-0.088-0.801c0-0.305,0.234-0.549,0.584-0.549c0.354,0,0.645,0.217,0.674,0.633c0.029,0.744,0.207,1.707,0.615,2.095c0.148,0.134,0.293,0.19,0.408,0.19c0.264,0,0.412-0.162,0.412-0.387c0-0.549-0.261-1.018-0.261-1.625c0-0.273,0.143-0.578,0.498-0.578c0.407,0,0.612,0.332,0.645,0.718c0.086,0.632,0.145,1.956,1.199,1.956c0.145,0,0.352-0.057,0.438-0.191c0.146-0.279,0.061-0.691,0.029-0.992c-0.029-0.279,0.09-0.553,0.441-0.553c0.352,0,0.469,0.357,0.586,0.58c0,0,0.291,0.576,0.466,0.936c0.207,0.415,0.793,0.359,0.793-0.134v-1.77c0-0.329-0.266-0.606-0.675-0.606c-3.631,0-8.082-1.6-10.428-4.464c-0.291-0.358-0.026-0.938,0.473-0.938c0.146,0,0.322,0.055,0.435,0.222c0.149,0.192,1.145,1.294,1.379,1.46c0.117,0.082,0.207,0.139,0.322,0.139c0.234,0,0.412-0.249,0.262-0.525c-0.232-0.607-0.645-1.405-0.645-2.262c0-0.303,0.205-0.633,0.645-0.633c0.353,0,0.498,0.279,0.559,0.496l0.906,3.228c0.061,0.189,0.178,0.331,0.381,0.331c0.236,0,0.324-0.165,0.293-0.415c-0.027-0.47-0.116-1.599-0.116-2.455c0-0.357,0.202-0.494,0.498-0.494c0.35,0,0.586,0.273,0.586,0.634c0,0.575,0.202,3.858,1.2,3.858c0.117,0,0.234-0.082,0.203-0.25c-0.056-0.469-0.173-0.878-0.173-1.375c0-0.223,0.117-0.552,0.527-0.552c0.295,0,0.469,0.189,0.529,0.468c0.086,0.389,0.086,0.908,0.231,1.35c0.059,0.168,0.207,0.25,0.353,0.25c0.115,0,0.236-0.082,0.236-0.275v-0.688c0-0.221,0.174-0.637,0.643-0.637c0.383,0,0.613,0.275,0.613,0.637c0,0.33-0.173,0.77-0.144,0.99c0,0.246,0.262,0.301,0.467,0.301c0.203,0,0.559-0.109,0.559-0.137v-2.176c-2.079-0.083-4.248-1.131-4.424-3.311c-0.029-0.303,0.176-0.717,0.645-0.717c0.262,0,0.498,0.135,0.557,0.58c0.117,0.854,0.469,1.518,1.053,1.518c0.234,0,0.384-0.168,0.352-0.416c-0.057-0.384-0.615-1.321-0.615-1.682c0-0.332,0.205-0.635,0.588-0.635c0.352,0,0.496,0.303,0.613,0.635l0.584,2.039c0.063,0.224,0.211,0.361,0.385,0.361c0.264,0,0.377-0.223,0.377-0.471c0.033-0.605,0.033-2.205,0.033-2.205c0-0.745,0.232-1.188,0.762-1.188c0.553,0,0.672,0.387,0.672,0.828c0,0-0.029,1.238-0.029,1.82c0,0.301,0.148,0.414,0.322,0.414c0.173,0,0.322-0.113,0.379-0.302l0.471-1.712c0.088-0.33,0.232-0.523,0.527-0.523c0.412,0,0.762,0.303,0.762,0.744c0,0.498-0.412,1.461-0.617,2.068c-0.115,0.303,0.092,0.525,0.324,0.525c0.674,0,1.027-1.16,1.23-1.684c0.146-0.385,0.294-0.527,0.554-0.527c0.381,0,0.498,0.336,0.498,0.692c0,1.931-1.582,2.62-3.75,2.866c-0.288,0.031-0.553,0.196-0.553,0.584v0.934c0,0.938,0.318,1.074,0.674,1.074c0.498,0,0.67-0.219,0.906-0.688c0.115-0.25,0.351-0.852,0.467-1.049c0.177-0.33,0.293-0.576,0.617-0.576c0.438,0,0.615,0.273,0.615,0.635c0,0.496-0.293,0.936-0.44,1.268c-0.119,0.301,0.32,0.553,0.673,0.137c0.615-0.527,1.432-1.766,1.432-3.5c0-0.332,0.265-0.609,0.617-0.609c0.498,0,0.646,0.359,0.617,0.635c-0.091,0.884-0.501,1.709-0.677,2.313c-0.059,0.197,0.092,0.334,0.297,0.334c0.203,0,0.35-0.108,0.466-0.245c0.731-0.86,1.143-2.73,1.32-3.53c0.055-0.277,0.29-0.498,0.614-0.498c0.41,0,0.674,0.275,0.674,0.635c0,0.743-0.762,1.846-0.91,2.428c-0.03,0.137-0.057,0.33,0.117,0.412c0.119,0.08,0.383-0.027,0.498-0.108c0.236-0.168,0.584-0.471,0.764-0.609c0.173-0.137,0.379-0.221,0.498-0.221c0.32,0,0.496,0.194,0.496,0.494c0,0.112-0.056,0.25-0.146,0.361c-2.078,2.396-6.881,3.582-9.606,3.582c-0.379,0-0.439,0.141-0.439,0.334v2.15c0,0.304,0.379,0.328,0.498,0.025c0.086-0.25,0.147-0.688,0.205-0.883c0.09-0.385,0.295-0.685,0.704-0.685c0.439,0,0.613,0.3,0.613,0.579c0,0.19-0.055,0.354-0.055,0.547c0,0.277,0.291,0.277,0.408,0.14c0.088-0.112,0.176-0.386,0.234-0.634c0.088-0.307,0.205-0.441,0.498-0.441c0.324,0,0.408,0.248,0.438,0.526l0.061,0.739c0.056,0.471,0.498,0.441,0.762,0c0.32-0.551,0.408-1.24,0.557-1.982c0.055-0.307,0.262-0.553,0.555-0.553c0.412,0,0.439,0.359,0.439,0.633c0,0.609-0.027,1.025-0.027,1.684c0,0.111,0.027,0.219,0.176,0.219c0.056,0,0.172-0.022,0.26-0.107c0.355-0.332,0.355-1.076,0.41-1.629c0.03-0.328,0.293-0.633,0.676-0.633c0.409,0,0.645,0.332,0.645,0.605c0,0.223-0.146,0.414-0.174,0.556c-0.063,0.243,0.027,0.436,0.348,0.436c0.119,0,0.32-0.08,0.441-0.246c0.498-0.691,0.557-2.012,0.791-3.254c0.057-0.33,0.266-0.58,0.617-0.58c0.348,0,0.522,0.305,0.522,0.58c0,0.99-0.381,1.93-0.584,2.674c-0.029,0.082-0.029,0.248,0.148,0.248c0.088,0,0.205-0.055,0.262-0.139c0.441-0.606,1.467-2.367,1.875-3.419c0.121-0.301,0.354-0.579,0.732-0.579c0.355,0,0.555,0.223,0.555,0.527c0,0.574-1.316,1.873-1.316,2.289c0,0.111,0.15,0.164,0.383,0.078c0.32-0.135,0.584-0.328,0.846-0.494c0.178-0.111,0.412-0.223,0.586-0.223c0.498,0,0.676,0.416,0.295,0.717c-2.08,1.74-4.775,3.006-5.916,3.393c-0.146,0.057-0.207,0.445,0.264,0.445c0.848,0,1.607-0.445,1.931-0.445c0.26,0,0.381,0.142,0.381,0.334c0,0.767-1.611,1.293-2.635,1.293c-1.994,0-3.252-0.633-3.252-0.633c-1.461,0.357-3.075,0.549-4.775,0.549c-0.176,0-0.291,0.113-0.291,0.248v2.65c0,0.221,0.205,0.303,0.381,0.303c0.176,0,0.324-0.082,0.379-0.248c0.18-0.522,0.527-1.436,0.619-1.686c0.084-0.244,0.289-0.519,0.644-0.519c0.438,0,0.525,0.302,0.525,0.519c0,0.475-0.441,1.879-0.617,2.373c-0.088,0.277,0.324,0.383,0.5,0.141l0.82-1.297c0.203-0.33,0.408-0.525,0.701-0.525c0.412,0,0.557,0.307,0.412,0.72l-0.148,0.354c-0.232,0.498,0.322,0.635,0.646,0.416c0.525-0.383,0.816-1.295,0.965-2.151c0.057-0.306,0.32-0.634,0.734-0.634c0.5,0,0.76,0.328,0.76,0.662c0,0.828-0.906,1.353-0.906,1.957c0,0.248,0.201,0.385,0.436,0.385c1.201,0,1.906-1.709,2.345-2.537c0.176-0.33,0.379-0.521,0.731-0.521c0.295,0,0.441,0.191,0.441,0.441c0,0.114-0.146,0.691-0.238,1.074c-0.113,0.474,0.265,0.554,0.649,0.164c0.617-0.662,1.229-2.176,1.229-4.053c0-0.354,0.205-0.58,0.559-0.58c0.466,0,0.643,0.39,0.643,0.664c0.029,0.582-0.088,1.156-0.207,1.712c-0.057,0.304,0.354,0.304,0.469,0.106c0.502-0.771,0.881-1.902,1.291-2.949c0.117-0.305,0.352-0.467,0.611-0.467c0.531,0,0.768,0.467,0.59,0.854l-1.289,2.646c-0.178,0.358,0.176,0.414,0.35,0.301c0.205-0.107,.588-0.656,0.881-0.988c0.471-0.553,1.521,0.135,0.994,0.77c-0.791,0.94-2.02,1.573-2.754,1.961c-0.261,0.133-0.146,0.492,0.149,0.439c0.557-0.106,1.641-0.469,2.668-0.827c0.555-0.196,0.846-0.058,0.846,0.305c0,0.993-2.518,1.458-3.455,1.458c-0.678,0-1.23-0.024-1.67-0.082c-0.322-0.027-0.383,0.306-0.235,0.441c0.379,0.387,1.227,0.582,1.846,0.582h0.408c0.354,0,0.618,0.163,0.618,0.52c0,0.416-0.439,0.607-0.881,0.607c-2.314,0-3.191-1.072-3.57-1.488c-0.264-0.334-0.764-0.084-0.555,0.387c0.233,0.414,0.729,1.159,0.967,1.512c0.346,0.5,0.346,0.635,0.346,0.721c0,0.357-0.318,0.467-0.494,0.467c-1,0-1.758-1.54-2.49-2.754c-2.901,0.828-6.209,0.99-7.73,1.047c-0.469,0.027-0.619,0.305-0.619,0.603v1.189c0,0.224,0.176,0.275,0.295,0.275h0.646c0.322,0,0.466-0.052,0.645-0.22c0.701-0.581,1.695-1.351,3.133-1.351c0.379,0,0.73,0.139,0.791,0.357c0.055,0.193-0.326,0.385-0.734,0.52c-0.44,0.169-0.85,0.307-1.141,0.474c-0.15,0.08-0.207,0.136-0.207,0.248c0,0.11,0.117,0.164,0.266,0.164c0.673,0.026,1.9-0.22,2.662-0.554c0.264-0.109,0.563-0.248,0.735-0.248c0.262,0,0.44,0.166,0.44,0.421c0,1.098-3.984,1.29-4.598,1.29c0.586,0.664,2.047,0.52,3.043,0.414c0.44-0.057,0.705-0.082,0.705,0.219c0,0.553-1.404,0.801-2.193,0.801c-1.379,0-2.492-0.301-3.518-1.238h-0.645c-0.234,0-0.263,0-0.263,0.248c0,0,0.263,14.613,0.263,16.072C27.468,44.706,27.703,45.149,28.435,45.091 M1.021,23.999c0,12.85,11.102,23.301,24.75,23.301c13.648,0,24.75-10.451,24.75-23.301c0-12.848-11.102-23.299-24.75-23.299C12.123,0.7,1.021,11.151,1.021,23.999 M2.222,23.999c0-12.244,10.543-22.168,23.549-22.168c13,0,23.547,9.924,23.547,22.168c0,12.242-10.547,22.168-23.547,22.168C12.765,46.167,2.222,36.241,2.222,23.999" /><path class="st0" d="M58.831,7.821h12.876c6.219,0,9.696,3.918,9.696,8.619c0,3.082-1.813,5.19-4.701,6.121c4.553,1.076,6.755,4.111,6.755,8.269c0,5.927-4.212,10.283-11.164,10.283H58.831V7.821z M70.972,20.11c2.202,0,3.671-1.223,3.671-3.133c0-1.908-1.221-3.129-3.327-3.129h-5.629v6.262H70.972z M71.998,35.094c2.794,0,4.557-1.86,4.557-4.601c0-2.692-1.813-4.556-4.944-4.556h-5.924v9.157H71.998z" /><path class="st0" d="M86.991,7.821h9.203c9.302,0,14.885,4.852,14.885,12.879c0,8.029-5.631,12.828-14.885,12.828h-2.35v7.586h-6.853V7.821z M96,27.503c5.58,0,8.027-2.252,8.027-6.803c0-4.603-2.545-6.852-8.027-6.852h-2.157v13.654H96z" /><path class="st0" d="M135.565,7.821v13.954c0,0.013,0,0.028,0,0.042v5.461c-0.016-0.018-0.026-0.033-0.041-0.055v0.052L115.299,7.531h-0.688v33.583h6.414V27.163v-5.447l20.27,19.692h0.684V7.821H135.565z" /></g></svg>